<svg width="17" height="17" viewBox="0 0 17 17" fill="none" xmlns="http://www.w3.org/2000/svg">
<path d="M4.78125 3.98438C4.78125 4.14198 4.73451 4.29605 4.64695 4.4271C4.55939 4.55814 4.43494 4.66028 4.28933 4.72059C4.14372 4.78091 3.98349 4.79669 3.82891 4.76594C3.67433 4.73519 3.53234 4.6593 3.4209 4.54785C3.30945 4.43641 3.23356 4.29442 3.20281 4.13984C3.17206 3.98526 3.18785 3.82503 3.24816 3.67942C3.30847 3.53381 3.41061 3.40936 3.54166 3.3218C3.6727 3.23424 3.82677 3.1875 3.98438 3.1875C4.19572 3.1875 4.39841 3.27146 4.54785 3.4209C4.69729 3.57034 4.78125 3.77303 4.78125 3.98438ZM8.5 3.1875C8.34239 3.1875 8.18833 3.23424 8.05728 3.3218C7.92624 3.40936 7.8241 3.53381 7.76378 3.67942C7.70347 3.82503 7.68769 3.98526 7.71844 4.13984C7.74918 4.29442 7.82508 4.43641 7.93652 4.54785C8.04797 4.6593 8.18996 4.73519 8.34454 4.76594C8.49912 4.79669 8.65934 4.78091 8.80495 4.72059C8.95056 4.66028 9.07502 4.55814 9.16258 4.4271C9.25014 4.29605 9.29688 4.14198 9.29688 3.98438C9.29688 3.77303 9.21292 3.57034 9.06348 3.4209C8.91403 3.27146 8.71134 3.1875 8.5 3.1875ZM13.0156 4.78125C13.1732 4.78125 13.3273 4.73451 13.4583 4.64695C13.5894 4.55939 13.6915 4.43494 13.7518 4.28933C13.8122 4.14372 13.8279 3.98349 13.7972 3.82891C13.7664 3.67433 13.6905 3.53234 13.5791 3.4209C13.4677 3.30945 13.3257 3.23356 13.1711 3.20281C13.0165 3.17206 12.8563 3.18785 12.7107 3.24816C12.5651 3.30847 12.4406 3.41061 12.353 3.54166C12.2655 3.6727 12.2188 3.82677 12.2188 3.98438C12.2188 4.19572 12.3027 4.39841 12.4521 4.54785C12.6016 4.69729 12.8043 4.78125 13.0156 4.78125ZM3.98438 12.2188C3.82677 12.2188 3.6727 12.2655 3.54166 12.353C3.41061 12.4406 3.30847 12.5651 3.24816 12.7107C3.18785 12.8563 3.17206 13.0165 3.20281 13.1711C3.23356 13.3257 3.30945 13.4677 3.4209 13.5791C3.53234 13.6905 3.67433 13.7664 3.82891 13.7972C3.98349 13.8279 4.14372 13.8122 4.28933 13.7518C4.43494 13.6915 4.55939 13.5894 4.64695 13.4583C4.73451 13.3273 4.78125 13.1732 4.78125 13.0156C4.78125 12.8043 4.69729 12.6016 4.54785 12.4521C4.39841 12.3027 4.19572 12.2188 3.98438 12.2188ZM8.5 12.2188C8.34239 12.2188 8.18833 12.2655 8.05728 12.353C7.92624 12.4406 7.8241 12.5651 7.76378 12.7107C7.70347 12.8563 7.68769 13.0165 7.71844 13.1711C7.74918 13.3257 7.82508 13.4677 7.93652 13.5791C8.04797 13.6905 8.18996 13.7664 8.34454 13.7972C8.49912 13.8279 8.65934 13.8122 8.80495 13.7518C8.95056 13.6915 9.07502 13.5894 9.16258 13.4583C9.25014 13.3273 9.29688 13.1732 9.29688 13.0156C9.29688 12.8043 9.21292 12.6016 9.06348 12.4521C8.91403 12.3027 8.71134 12.2188 8.5 12.2188ZM13.0156 12.2188C12.858 12.2188 12.704 12.2655 12.5729 12.353C12.4419 12.4406 12.3397 12.5651 12.2794 12.7107C12.2191 12.8563 12.2033 13.0165 12.2341 13.1711C12.2648 13.3257 12.3407 13.4677 12.4521 13.5791C12.5636 13.6905 12.7056 13.7664 12.8602 13.7972C13.0147 13.8279 13.175 13.8122 13.3206 13.7518C13.4662 13.6915 13.5906 13.5894 13.6782 13.4583C13.7658 13.3273 13.8125 13.1732 13.8125 13.0156C13.8125 12.8043 13.7285 12.6016 13.5791 12.4521C13.4297 12.3027 13.227 12.2188 13.0156 12.2188ZM3.98438 7.70313C3.82677 7.70313 3.6727 7.74986 3.54166 7.83742C3.41061 7.92498 3.30847 8.04944 3.24816 8.19505C3.18785 8.34066 3.17206 8.50088 3.20281 8.65546C3.23356 8.81004 3.30945 8.95203 3.4209 9.06348C3.53234 9.17492 3.67433 9.25082 3.82891 9.28156C3.98349 9.31231 4.14372 9.29653 4.28933 9.23622C4.43494 9.1759 4.55939 9.07377 4.64695 8.94272C4.73451 8.81168 4.78125 8.65761 4.78125 8.5C4.78125 8.28866 4.69729 8.08597 4.54785 7.93652C4.39841 7.78708 4.19572 7.70313 3.98438 7.70313ZM8.5 7.70313C8.34239 7.70313 8.18833 7.74986 8.05728 7.83742C7.92624 7.92498 7.8241 8.04944 7.76378 8.19505C7.70347 8.34066 7.68769 8.50088 7.71844 8.65546C7.74918 8.81004 7.82508 8.95203 7.93652 9.06348C8.04797 9.17492 8.18996 9.25082 8.34454 9.28156C8.49912 9.31231 8.65934 9.29653 8.80495 9.23622C8.95056 9.1759 9.07502 9.07377 9.16258 8.94272C9.25014 8.81168 9.29688 8.65761 9.29688 8.5C9.29688 8.28866 9.21292 8.08597 9.06348 7.93652C8.91403 7.78708 8.71134 7.70313 8.5 7.70313ZM13.0156 7.70313C12.858 7.70313 12.704 7.74986 12.5729 7.83742C12.4419 7.92498 12.3397 8.04944 12.2794 8.19505C12.2191 8.34066 12.2033 8.50088 12.2341 8.65546C12.2648 8.81004 12.3407 8.95203 12.4521 9.06348C12.5636 9.17492 12.7056 9.25082 12.8602 9.28156C13.0147 9.31231 13.175 9.29653 13.3206 9.23622C13.4662 9.1759 13.5906 9.07377 13.6782 8.94272C13.7658 8.81168 13.8125 8.65761 13.8125 8.5C13.8125 8.28866 13.7285 8.08597 13.5791 7.93652C13.4297 7.78708 13.227 7.70313 13.0156 7.70313Z" fill="white"/>
</svg>
