<svg width="15" height="15" viewBox="0 0 15 15" fill="none" xmlns="http://www.w3.org/2000/svg">
<path d="M7.5 13.125C10.6066 13.125 13.125 10.6066 13.125 7.5C13.125 4.3934 10.6066 1.875 7.5 1.875C4.3934 1.875 1.875 4.3934 1.875 7.5C1.875 10.6066 4.3934 13.125 7.5 13.125Z" stroke="white" stroke-linecap="round" stroke-linejoin="round"/>
<path d="M2.25 5.625H12.75M2.25 9.375H12.75M7.1875 1.875C6.13459 3.56226 5.57638 5.51117 5.57638 7.5C5.57638 9.48883 6.13459 11.4377 7.1875 13.125M7.8125 1.875C8.86541 3.56226 9.42362 5.51117 9.42362 7.5C9.42362 9.48883 8.86541 11.4377 7.8125 13.125" stroke="white" stroke-linecap="round" stroke-linejoin="round"/>
</svg>
